<svg xmlns="http://www.w3.org/2000/svg" width="20" height="20">
    <path fill=""
        d="M12.392 0c1.279.004 1.656.016 1.928.046l.088.01.086.012.093.013c.867.126 1.595.472 2.19 1.04.335.322.564.636.771 1.056.253.514.376 1 .433 1.723.009.112.014 1.437.017 3.098v4.226l-.001.454a131.197 131.197 0 0 1-.015 2.412c-.056.712-.18 1.202-.425 1.706a3.769 3.769 0 0 1-2.457 2.012c-.391.1-.745.148-1.354.177-.116.006-.823.01-1.803.012h-.619l-.669.001H7.082l-.441-.002a169.726 169.726 0 0 1-2.426-.014c-.526-.025-.936-.077-1.307-.173a3.792 3.792 0 0 1-2.457-2.008c-.25-.516-.367-.988-.43-1.739-.011-.138-.017-.646-.02-2.005v-.829L0 5.83c.005-1.918.023-2.013.082-2.418.125-.867.471-1.597 1.042-2.19A3.593 3.593 0 0 1 2.158.467C2.681.206 3.161.085 3.932.02c.132-.01.602-.016 1.827-.019h.571ZM9.47 2.353h-.947a55.23 55.23 0 0 0-1.728.018l-.17.006-.367.016c-.708.032-1.19.145-1.613.309a3.26 3.26 0 0 0-1.177.766c-.37.37-.597.74-.767 1.178-.165.422-.277.906-.309 1.613-.028.641-.038.888-.04 2.266v.95c.002 1.377.011 1.623.04 2.265.033.707.145 1.19.31 1.613.169.437.396.808.765 1.177.37.37.74.598 1.177.767.423.165.906.277 1.613.31l.452.018.173.006c.293.008.633.013 1.241.014h1.748a41.722 41.722 0 0 0 1.328-.017l.17-.006a59.6 59.6 0 0 0 .367-.016c.708-.032 1.191-.144 1.614-.309.437-.17.807-.397 1.176-.767.37-.37.597-.74.767-1.177.163-.423.276-.906.309-1.613.029-.642.038-.888.04-2.266v-.949c-.002-1.378-.011-1.625-.04-2.266-.033-.708-.146-1.19-.309-1.613a3.262 3.262 0 0 0-.767-1.178c-.37-.37-.74-.597-1.177-.766-.423-.164-.906-.277-1.614-.309-.641-.03-.887-.038-2.265-.04ZM8.402 3.55l1.266.002a35.13 35.13 0 0 1 2.015.038c.648.03 1 .138 1.234.229.31.12.53.264.763.497.233.233.377.454.497.764.091.234.2.586.23 1.234l.015.361.006.168c.009.28.014.582.016 1.127v2.057a31.226 31.226 0 0 1-.038 1.656c-.03.648-.138 1-.229 1.234-.12.31-.264.53-.497.763a2.055 2.055 0 0 1-.763.498c-.234.091-.586.199-1.234.229l-.361.015-.252.009a46.72 46.72 0 0 1-1.215.013l-.614.001H8.14a33.228 33.228 0 0 1-1.827-.038c-.648-.03-1-.139-1.234-.23a2.058 2.058 0 0 1-.764-.497 2.06 2.06 0 0 1-.498-.764c-.09-.234-.2-.585-.229-1.233-.028-.634-.036-.867-.038-2.22V8.53c.002-1.353.01-1.585.038-2.219.03-.648.138-1 .23-1.234.12-.31.264-.531.497-.764.232-.233.454-.377.764-.497.234-.092.586-.2 1.234-.23.613-.027.85-.036 2.089-.037Zm.596 2.037a3.413 3.413 0 1 0 .001 6.826 3.413 3.413 0 0 0-.001-6.826Zm0 1.198a2.215 2.215 0 1 1 0 4.43 2.215 2.215 0 0 1 0-4.43Zm3.547-2.13a.798.798 0 1 0 0 1.596.798.798 0 0 0 0-1.596Z" />
</svg>