<?xml version="1.0" encoding="UTF-8"?>
<svg width="17.9986077px" height="17.9984593px" viewBox="0 0 17.9986077 17.9984593" version="1.1" xmlns="http://www.w3.org/2000/svg" xmlns:xlink="http://www.w3.org/1999/xlink">
    <title>Combined Shape</title>
    <g id="Symbols" stroke="none" stroke-width="1" fill="none" fill-rule="evenodd">
        <path d="M12.3919819,2.25858828e-14 C13.6709731,0.0042243482 14.0476553,0.0163363776 14.3197841,0.0458013056 L14.4077157,0.056278632 L14.4944684,0.0681192614 C14.5239191,0.0723020109 14.5542676,0.0767249614 14.5866083,0.0814010967 C15.454322,0.20658092 16.1824928,0.552764058 16.7779039,1.12161219 C17.1115335,1.44273167 17.3413364,1.75678901 17.5482975,2.17733229 C17.800527,2.69106807 17.9244268,3.1771092 17.9811854,3.89993959 C17.990007,4.01224617 17.9953443,5.33746388 17.9976177,6.99790873 L17.9984056,7.72749321 C17.9984726,7.81026998 17.9985328,7.89352258 17.9985862,7.97715625 L17.9986077,10.0089031 C17.9985577,10.0925636 17.9985013,10.1758474 17.9984384,10.2586594 L17.997695,10.9886568 C17.9975925,11.0677811 17.9974832,11.146148 17.9973672,11.2236623 L17.9965885,11.6777569 C17.9940036,13.004782 17.9891621,13.9939237 17.9816007,14.0901865 C17.9255343,14.8015236 17.8016345,15.2917189 17.5572958,15.7957615 C17.0713872,16.7983079 16.1784782,17.5294467 15.1000656,17.8077779 C14.7089853,17.9088634 14.3552825,17.9563597 13.7461663,17.9850237 C13.6297322,17.9909583 12.9233138,17.9945084 11.9429741,17.9965257 L11.5369783,17.9972529 C11.4671272,17.9973612 11.396246,17.9974631 11.3244283,17.997559 L10.6553124,17.9982652 C10.5787186,17.998327 10.5014693,17.9983836 10.4236581,17.998435 L8.01446407,17.9984593 C7.93478797,17.9983916 7.85548673,17.9983159 7.77665359,17.9982324 L7.31001835,17.9976378 C7.23343076,17.9975234 7.15749782,17.9974015 7.08231281,17.9972723 L6.64092401,17.9964109 C5.34815986,17.9935723 4.35816234,17.9884855 4.21488159,17.9822542 C3.68882666,17.9573291 3.27905756,17.9047092 2.90805039,17.8091627 C1.83655956,17.5322162 0.927038277,16.7899995 0.45082013,15.8013005 C0.201636216,15.2847952 0.0839660346,14.8126014 0.0216700561,14.0620764 C0.0100251869,13.9240919 0.00417640645,13.4156363 0.00149842749,12.0565262 L0.000573117281,11.4518552 C0.000488479452,11.3791263 0.000409653209,11.3045045 0.000336391999,11.2279449 L-4.51439071e-13,5.83101582 C0.00454664866,3.91277991 0.0231821978,3.8178356 0.0817510665,3.41306762 C0.207035201,2.5459481 0.553123971,1.81647099 1.12417044,1.22352851 C1.43772687,0.898393304 1.75543636,0.666450601 2.15828368,0.466356747 C2.68101616,0.206027027 3.16083363,0.0845859815 3.93191941,0.0204728643 C4.06385252,0.00952533162 4.53351498,0.00386038595 5.75872162,0.00112882976 L6.12970062,0.000426175931 C6.19507726,0.000321693872 6.26225739,0.000223356158 6.33128611,0.000130909124 Z M9.47018547,2.35314539 L8.52324036,2.35314539 C7.580597,2.3541686 7.16753648,2.35881798 6.79524963,2.37100268 L6.62454019,2.37717568 C6.51029079,2.38166669 6.39278196,2.38692805 6.25777438,2.39307362 C5.55036893,2.42547636 5.06750588,2.53750123 4.64500071,2.70186898 C4.20795981,2.87163719 3.83722952,3.09873333 3.46788359,3.46831845 C3.09826078,3.8377651 2.87122655,4.20859647 2.70095088,4.64561807 C2.53621262,5.06837692 2.42407986,5.55151011 2.39223969,6.25883149 C2.36355717,6.90029237 2.35402616,7.14694338 2.35247088,8.52505015 L2.35246419,9.47419396 C2.3539797,10.8521712 2.36331986,11.0981421 2.39237813,11.7396029 C2.42491047,12.4472013 2.5369048,12.930196 2.70108931,13.3528164 C2.87094968,13.7899764 3.09798391,14.1608078 3.46746828,14.5302545 C3.83667578,14.8999781 4.20740607,15.1276281 4.6441701,15.2973963 C5.06695214,15.4617641 5.54995363,15.5737889 6.25722064,15.6061917 C6.42598011,15.6138736 6.56738994,15.620174 6.70926317,15.6253152 L6.8815135,15.6309425 C7.17490156,15.6394414 7.51464406,15.6436594 8.12324533,15.6453759 L9.87055072,15.6453759 C10.5400177,15.6434877 10.88401,15.6385727 11.1988799,15.6282626 L11.3695202,15.6220896 C11.4837299,15.6175986 11.6012136,15.6123372 11.7362212,15.6061917 C12.4436266,15.5737889 12.9270434,15.4617641 13.3498254,15.2973963 C13.7867279,15.1276281 14.1569045,14.8999781 14.526112,14.5302545 C14.8957348,14.1608078 15.122769,13.7899764 15.2930447,13.3529548 C15.4563986,12.930196 15.5685313,12.4470628 15.6017559,11.7397414 C15.6305636,11.0982805 15.6401066,10.8521963 15.641663,9.47419749 L15.641663,8.52505368 C15.6401066,7.1469685 15.6305636,6.90043084 15.6017559,6.25896997 C15.5685313,5.55137163 15.4563986,5.06837692 15.2930447,4.64575654 C15.122769,4.20859647 14.8957348,3.8377651 14.526112,3.46831845 C14.1564891,3.09859486 13.7868663,2.87149872 13.3494101,2.70186898 C12.9257975,2.53750123 12.4426576,2.42547636 11.7352521,2.39307362 C11.0939661,2.36388214 10.8481756,2.35464086 9.47018547,2.35314539 Z M8.40158665,3.54904836 L9.66829657,3.55115574 C10.8419673,3.55304995 11.0822518,3.56162964 11.6827851,3.58892866 C12.3306632,3.61856193 12.6822894,3.72684802 12.9165223,3.81782495 C13.2266178,3.93829668 13.4476993,4.08230887 13.6801326,4.31494393 C13.9127042,4.547579 14.0566771,4.76913621 14.1773929,5.0793163 C14.268345,5.31333611 14.37674,5.66505818 14.4062268,6.31311301 C14.4122916,6.44657485 14.4174523,6.56225183 14.4218334,6.67433547 L14.4278357,6.84153987 C14.4369167,7.12163534 14.4415133,7.42362097 14.4435687,7.96923939 L14.4445125,8.32762032 C14.4446242,8.39281444 14.4447143,8.46088838 14.4447849,8.53206387 L14.4447849,9.464155 C14.4447143,9.53533049 14.4446242,9.60340443 14.4445125,9.66859855 L14.4435687,10.0269795 C14.4402801,10.8999689 14.430486,11.1492585 14.4062268,11.6831059 C14.3766016,12.3311607 14.268345,12.6828828 14.1773929,12.9169026 C14.056954,13.2270827 13.9127042,13.4479475 13.6801326,13.6804441 C13.4475609,13.9130792 13.2267563,14.0570913 12.9165223,14.1775631 C12.6825663,14.2689554 12.3306632,14.3769646 11.6827851,14.4065978 C11.5493596,14.4126643 11.4337142,14.4178264 11.3216553,14.4222086 L11.0695875,14.430805 C10.7829308,14.4390108 10.4521589,14.4429254 9.85549992,14.4444924 L9.24072949,14.4453213 C9.16311442,14.4453547 9.08217516,14.4453704 8.99768995,14.4453704 L8.75463248,14.4453213 L8.13982814,14.4444924 C7.12546899,14.4418285 6.87965305,14.4323802 6.31259484,14.4065978 C5.66471666,14.3766876 5.31309047,14.2684015 5.07871916,14.1774246 C4.76862362,14.0569529 4.54712681,13.9129407 4.31455515,13.6803056 C4.0819835,13.4476706 3.93801057,13.2266672 3.81729481,12.9163487 C3.72634268,12.6823289 3.61794768,12.3306068 3.58846092,11.682552 C3.55965315,11.0486082 3.55169671,10.8159355 3.5504425,9.46278064 L3.5504425,8.5301431 C3.55169671,7.177161 3.55965315,6.94539508 3.58846092,6.31145133 C3.61808611,5.6633965 3.72634268,5.31167443 3.81729481,5.07737768 C3.9377337,4.76719759 4.0819835,4.54564038 4.31455515,4.31300531 C4.54712681,4.08037024 4.76862362,3.93635805 5.07871916,3.81560938 C5.31295204,3.72421703 5.66471666,3.61620789 6.31259484,3.58643614 C6.92558727,3.55874149 7.1631426,3.55043309 8.40158665,3.54904836 Z M8.99755151,5.58626689 C7.11316738,5.58626689 5.58525468,7.11459621 5.58525468,8.99963264 C5.58525468,10.8846691 7.11316738,12.412306 8.99768995,12.412306 C10.8822125,12.412306 12.4095715,10.8846691 12.4095715,8.99963264 C12.4095715,7.11459621 10.8820741,5.58626689 8.99755151,5.58626689 Z M8.99768995,6.78406055 C10.2209061,6.78406055 11.2126581,7.77594448 11.2126581,8.99963264 C11.2126581,10.2231823 10.2209061,11.2152047 8.99768995,11.2152047 C7.77433537,11.2152047 6.78272182,10.2231823 6.78272182,8.99963264 C6.78272182,7.77594448 7.77433537,6.78406055 8.99768995,6.78406055 Z M12.5446845,4.65406494 C12.1044596,4.65434188 11.747296,5.01118746 11.747296,5.45167089 C11.747296,5.89201584 12.1044596,6.24927684 12.5446845,6.24927684 C12.9849094,6.24927684 13.3420731,5.89201584 13.3420731,5.45167089 C13.3420731,5.01132594 12.9849094,4.65406494 12.5446845,4.65406494 Z" id="Combined-Shape" fill="#FFFFFF" fill-rule="nonzero"></path>
    </g>
</svg>